<?xml version="1.0" standalone="no"?>
<!DOCTYPE svg PUBLIC "-//W3C//DTD SVG 20010904//EN"
 "http://www.w3.org/TR/2001/REC-SVG-20010904/DTD/svg10.dtd">
<svg version="1.0" xmlns="http://www.w3.org/2000/svg"
 width="512.000000pt" height="512.000000pt" viewBox="0 0 512.000000 512.000000"
 preserveAspectRatio="xMidYMid meet">
<metadata>
</metadata>
<g transform="translate(0.000000,512.000000) scale(0.100000,-0.100000)"
fill="#000000" stroke="none">
<path d="M397 5104 c-99 -24 -167 -62 -243 -138 -77 -78 -114 -144 -139 -248
-22 -95 -22 -4221 0 -4316 25 -104 62 -170 139 -248 78 -77 144 -114 248 -139
95 -22 4221 -22 4316 0 104 25 170 62 248 139 77 78 114 144 139 248 22 95 22
4221 0 4316 -25 104 -62 170 -139 248 -78 77 -144 114 -248 139 -92 22 -4231
21 -4321 -1z m3201 -1089 c61 -18 92 -48 92 -86 0 -39 -25 -71 -447 -574 -310
-369 -823 -1015 -1087 -1367 -96 -128 -209 -278 -250 -333 -151 -197 -215
-321 -216 -412 0 -44 4 -54 27 -71 34 -25 26 -47 -28 -72 -60 -26 -90 -13
-120 55 -35 75 -18 178 52 325 107 226 441 713 1019 1485 521 697 828 1065
888 1065 10 0 42 -7 70 -15z m-2460 -951 c2 -13 -60 -116 -177 -291 l-179
-271 56 -69 c98 -118 274 -357 288 -389 22 -53 -1 -93 -45 -76 -10 4 -50 43
-88 87 -56 66 -193 184 -366 318 l-30 23 21 47 c47 106 404 606 451 632 35 20
65 15 69 -11z m2915 -5 c12 -7 25 -18 30 -25 33 -56 132 -152 265 -257 87 -69
163 -131 170 -140 10 -12 7 -25 -18 -71 -60 -116 -380 -569 -426 -605 -32 -25
-84 -28 -84 -6 0 35 54 123 232 382 65 95 118 178 118 185 0 6 -19 34 -42 62
-75 88 -265 346 -289 391 -22 41 -22 44 -6 69 20 30 21 30 50 15z"/>
</g>
</svg>
